<?xml version="1.0" encoding="UTF-8"?>
<svg version="1.1" xmlns="http://www.w3.org/2000/svg" width="290" height="398">
<path d="M0 0 C0.81093109 -0.00367584 1.62186218 -0.00735168 2.45736694 -0.01113892 C13.04052587 -0.03615314 23.23282738 0.61333607 33.6875 2.3125 C32.48727677 5.39950817 31.30958664 8.00302473 29.375 10.6875 C25.51016073 16.64579388 23.74893182 23.57556537 21.6875 30.3125 C22.28498047 29.57193359 22.28498047 29.57193359 22.89453125 28.81640625 C23.42433594 28.17574219 23.95414063 27.53507812 24.5 26.875 C25.28310547 25.91787109 25.28310547 25.91787109 26.08203125 24.94140625 C27.6875 23.3125 27.6875 23.3125 30.6875 22.3125 C39.98381787 28.34376964 45.80806504 39.91349424 48.6875 50.3125 C49.07318096 52.35126681 49.45721008 54.39034659 49.83984375 56.4296875 C51.7329396 64.74755087 56.06727456 70.87667149 60.85742188 77.8046875 C61.47552734 78.74828125 62.09363281 79.691875 62.73046875 80.6640625 C63.29789795 81.48729004 63.86532715 82.31051758 64.44995117 83.15869141 C68.08669353 92.42668072 65.10390952 104.17008348 63.96484375 113.86328125 C63.87428774 114.6410964 63.78373173 115.41891155 63.69043159 116.22029686 C63.21032902 120.33523758 62.72185796 124.44908807 62.22680664 128.56225586 C61.72277418 132.7652984 61.2493635 136.97120016 60.78278255 141.17854023 C60.41338532 144.45565224 60.02034094 147.72963656 59.62127876 151.00325584 C59.43672511 152.55086463 59.26078258 154.09952989 59.0943737 155.64919472 C57.44251801 170.89088911 51.72624839 182.8012381 42.6875 195.3125 C42.3575 195.3125 42.0275 195.3125 41.6875 195.3125 C41.69273682 194.6751593 41.69797363 194.0378186 41.70336914 193.38116455 C41.75036646 186.69609326 41.74082725 180.01273392 41.69970703 173.32763672 C41.69163868 170.83903534 41.69757597 168.35034489 41.71826172 165.86181641 C42.31156777 146.41404047 42.31156777 146.41404047 32.6875 130.3125 C30.61036637 127.19679955 30.44780094 126.7629808 30.67578125 123.29296875 C30.74635742 122.12991211 30.74635742 122.12991211 30.81835938 120.94335938 C30.90827148 119.73389648 30.90827148 119.73389648 31 118.5 C31.04833984 117.70529297 31.09667969 116.91058594 31.14648438 116.09179688 C31.42847721 111.77623563 31.88559163 107.56878289 32.6875 103.3125 C31.7284375 102.94125 31.7284375 102.94125 30.75 102.5625 C29.05051797 101.86883386 27.35775357 101.15411785 25.703125 100.359375 C10.54210765 93.15520363 -4.6876051 94.30105963 -20.3125 99.3125 C-21.89822103 100.03435808 -23.46791353 100.79536072 -25 101.625 C-28.77125908 103.54620746 -29.41003635 103.43078353 -33.3125 102.3125 C-35.20244687 101.5354015 -37.07693329 100.72002827 -38.9375 99.875 C-52.60916238 94.0921208 -67.19821733 93.55906917 -81.3125 98.3125 C-84.6909026 99.89482961 -88.00916647 101.57950271 -91.3125 103.3125 C-91.22460205 103.95574219 -91.1367041 104.59898437 -91.04614258 105.26171875 C-90.6730421 108.27445807 -90.39934745 111.28922742 -90.125 114.3125 C-89.91520508 115.8284375 -89.91520508 115.8284375 -89.70117188 117.375 C-89.09050059 125.19159249 -91.02871723 128.6581029 -95.78125 134.4375 C-104.20932082 145.11227276 -102.51524468 157.36686694 -102 170.3125 C-101.94470845 172.74467981 -101.89453872 175.1769817 -101.84960938 177.609375 C-101.72955918 183.51312252 -101.54649466 189.41222652 -101.3125 195.3125 C-105.30855606 191.51068931 -107.76152076 187.52626561 -110.4375 182.75 C-110.87964844 182.00169922 -111.32179688 181.25339844 -111.77734375 180.48242188 C-117.4483885 170.3996127 -117.86110506 158.70958043 -119.2578125 147.40625 C-119.43423722 145.99099766 -119.61074233 144.57575535 -119.787323 143.16052246 C-120.154261 140.21259642 -120.51859497 137.26436179 -120.88134766 134.31591797 C-121.34306951 130.56669178 -121.81384887 126.8186638 -122.28691292 123.07085419 C-122.65356562 120.15435698 -123.01406233 117.23712187 -123.37292099 114.31965637 C-123.54377452 112.93851367 -123.71675965 111.55763267 -123.89206314 110.17704773 C-126.80029286 87.21038396 -126.80029286 87.21038396 -122.27734375 80.33203125 C-121.63611572 79.32092285 -120.9948877 78.30981445 -120.33422852 77.26806641 C-119.64643311 76.23085449 -118.9586377 75.19364258 -118.25 74.125 C-113.76965802 67.06219162 -109.47248005 60.22256399 -106.375 52.4375 C-97.96670353 31.7042445 -80.16080503 18.5354274 -60.2109375 9.875 C-53.4071709 7.0724389 -46.46973619 4.99888419 -39.3125 3.3125 C-38.62285156 3.14733887 -37.93320313 2.98217773 -37.22265625 2.81201172 C-24.94318216 0.04798671 -12.52233387 0.02731465 0 0 Z M19.6875 34.3125 C20.6875 37.3125 20.6875 37.3125 20.6875 37.3125 Z " fill="#000000" transform="translate(178.3125,55.6875)"/>
<path d="M0 0 C19.47 0 38.94 0 59 0 C59 16.83 59 33.66 59 51 C69.23 51 79.46 51 90 51 C88 56 88 56 86 59 C90.62 57.35 95.24 55.7 100 54 C105.91556522 65.45354117 110.98566349 77.11987965 116 89 C116 78.77 116 68.54 116 58 C114.02 58.99 112.04 59.98 110 61 C110 57.37 110 53.74 110 50 C118.10759008 46.50923205 126.30760632 43.31195269 134.5625 40.1875 C135.63371094 39.77830322 136.70492187 39.36910645 137.80859375 38.94750977 C138.82179687 38.56651123 139.835 38.1855127 140.87890625 37.79296875 C141.7922876 37.4477417 142.70566895 37.10251465 143.64672852 36.74682617 C146 36 146 36 149 36 C149.32530473 46.64822378 149.57358322 57.29525476 149.72537041 67.94744682 C149.79825032 72.8948173 149.8969569 77.83877433 150.05615234 82.78417969 C150.20901626 87.56316341 150.2921195 92.33888034 150.3282814 97.120121 C150.35402408 98.93775 150.40430551 100.75521243 150.48022079 102.57143784 C151.03560876 116.41773647 151.03560876 116.41773647 147.63433838 120.73240471 C143.84487923 124.24363031 139.53849125 126.58956378 135 129 C133.42223114 130.09208697 131.85841329 131.20559982 130.328125 132.36328125 C129.65305908 132.85119141 128.97799316 133.33910156 128.2824707 133.84179688 C127.61175537 134.32712891 126.94104004 134.81246094 126.25 135.3125 C124.72786774 136.41276479 123.20573222 137.51302506 121.68359375 138.61328125 C120.91772949 139.16709473 120.15186523 139.7209082 119.36279297 140.29150391 C115.34679883 143.19540213 111.32971896 146.09779654 107.3125 149 C106.58256836 149.52762939 105.85263672 150.05525879 105.10058594 150.59887695 C104.40352539 151.10249756 103.70646484 151.60611816 102.98828125 152.125 C102.38540283 152.56070313 101.78252441 152.99640625 101.16137695 153.4453125 C100.44812256 153.95835937 99.73486816 154.47140625 99 155 C98.30078682 155.62308548 98.30078682 155.62308548 97.58744812 156.25875854 C92.31998041 160.64278888 87.48097231 160.84740636 80.79296875 160.9453125 C79.71356522 160.96906952 78.63416168 160.99282654 77.52204895 161.01730347 C75.23860258 161.05567138 72.95488347 161.0800404 70.67114258 161.09130859 C67.23216735 161.12456801 63.80550119 161.25372386 60.36914062 161.38671875 C45.09014649 161.68394204 36.11362963 158.76852083 24.73458862 148.5402832 C22.57236804 146.62027059 20.27613782 144.95677501 17.90234375 143.30859375 C17.23477051 142.82503418 16.56719727 142.34147461 15.87939453 141.84326172 C8.45014191 136.4651329 0.98607877 131.13965508 -6.51977539 125.86889648 C-7.51158813 125.17195679 -7.51158813 125.17195679 -8.5234375 124.4609375 C-9.388479 123.85451416 -9.388479 123.85451416 -10.27099609 123.23583984 C-10.84156738 122.8280127 -11.41213867 122.42018555 -12 122 C-13.02944229 121.46551994 -13.02944229 121.46551994 -14.0796814 120.92024231 C-16.51014287 118.4898774 -16.47145736 116.70969513 -16.49768066 113.35945129 C-16.48329956 112.59412582 -16.46891846 111.82880035 -16.45410156 111.0402832 C-16.45468567 110.23029877 -16.45526978 109.42031433 -16.45587158 108.58578491 C-16.45308359 105.90701523 -16.42195876 103.22935666 -16.390625 100.55078125 C-16.38316513 98.69419462 -16.377471 96.83760012 -16.37347412 94.98100281 C-16.35819774 90.09323405 -16.31889872 85.20594036 -16.2746582 80.31835938 C-16.23374866 75.33144559 -16.21547234 70.34445508 -16.1953125 65.35742188 C-16.15240637 55.5714058 -16.08413084 45.78574239 -16 36 C-9.92880991 37.60137097 -3.9453284 39.25466649 1.9453125 41.4453125 C3.12351562 41.88230469 4.30171875 42.31929688 5.515625 42.76953125 C7.30226563 43.44048828 7.30226563 43.44048828 9.125 44.125 C10.96964844 44.80755859 10.96964844 44.80755859 12.8515625 45.50390625 C21.86341215 48.86341215 21.86341215 48.86341215 23 50 C23.07226502 51.85287502 23.0838122 53.70833878 23.0625 55.5625 C23.05347656 56.57441406 23.04445312 57.58632813 23.03515625 58.62890625 C23.02355469 59.41136719 23.01195312 60.19382812 23 61 C18.125 59.125 18.125 59.125 17 58 C17 68.23 17 78.46 17 89 C20.81612281 80.05628762 20.81612281 80.05628762 24.62817383 71.11083984 C25.10794678 69.98887207 25.58771973 68.8669043 26.08203125 67.7109375 C26.56905518 66.56931152 27.0560791 65.42768555 27.55786133 64.25146484 C28.94861215 61.11585973 30.44034477 58.05457769 32 55 C37.45479185 55.56820748 41.91059256 56.94637945 47 59 C46.18144531 58.19433594 45.36289063 57.38867188 44.51953125 56.55859375 C40.16379218 50.46055905 41.48717917 42.21584354 41.6875 35.0625 C41.71260924 33.504593 41.7354178 31.94664711 41.75585938 30.38867188 C41.8106609 26.59148031 41.89678276 22.79617146 42 19 C41.10804932 19.05760498 40.21609863 19.11520996 39.29711914 19.17456055 C35.9471908 19.36348181 32.6029979 19.50050842 29.24975586 19.60424805 C27.80678425 19.65917084 26.36441382 19.73395409 24.92358398 19.82983398 C12.9513433 20.60585097 12.9513433 20.60585097 8.09326172 16.60791016 C5.83875113 13.83534181 3.91220075 11.0142402 2 8 C1.40840088 7.49170654 0.81680176 6.98341309 0.20727539 6.4597168 C-0.39032593 5.73715698 -0.39032593 5.73715698 -1 5 C-0.67 3.35 -0.34 1.7 0 0 Z M41 72 C40.49210937 73.01578125 39.98421875 74.0315625 39.4609375 75.078125 C39.13029297 75.73925293 38.79964844 76.40038086 38.45898438 77.08154297 C37.73320362 78.53343141 37.00794757 79.98558226 36.28320312 81.43798828 C34.57838254 84.85290987 32.86909822 88.26501457 31.1328125 91.6640625 C30.59398437 92.72367188 30.05515625 93.78328125 29.5 94.875 C29.0153125 95.82117188 28.530625 96.76734375 28.03125 97.7421875 C26.8615126 99.88950761 26.8615126 99.88950761 27 102 C32.94 103.98 38.88 105.96 45 108 C47.0238394 104.9642409 47.38395628 103.62032788 47.8515625 100.11328125 C47.96838379 99.26805908 48.08520508 98.42283691 48.20556641 97.55200195 C48.34397949 96.48296631 48.48239258 95.41393066 48.625 94.3125 C49.07875 90.909375 49.5325 87.50625 50 84 C60.89 84 71.78 84 83 84 C83.495 88.95 83.495 88.95 84 94 C84.28946956 96.35710931 84.59851269 98.71200121 84.9375 101.0625 C85.16759766 102.71958984 85.16759766 102.71958984 85.40234375 104.41015625 C85.59957031 105.26480469 85.79679687 106.11945313 86 107 C87.92466288 108.22827405 87.92466288 108.22827405 89.87939453 107.56274414 C90.62302246 107.30614014 91.36665039 107.04953613 92.1328125 106.78515625 C92.93847656 106.51123047 93.74414062 106.23730469 94.57421875 105.95507812 C95.41597656 105.66052734 96.25773437 105.36597656 97.125 105.0625 C97.97449219 104.77181641 98.82398438 104.48113281 99.69921875 104.18164062 C101.80186749 103.46106999 103.90187477 102.73361685 106 102 C99.31663621 86.84973932 99.31663621 86.84973932 92 72 C84.28638044 72.55535659 84.28638044 72.55535659 76.625 73.5625 C67.23994412 74.69517916 58.1163409 74.12200894 48.83984375 72.4375 C46.17132921 72.0263946 43.69402445 71.92090937 41 72 Z " fill="#000000" transform="translate(82,227)"/>
<path d="M0 0 C19.14 0 38.28 0 58 0 C58.66 1.32 59.32 2.64 60 4 C59.38511719 4.74765625 58.77023438 5.4953125 58.13671875 6.265625 C57.32847656 7.25046875 56.52023438 8.2353125 55.6875 9.25 C54.48673828 10.71179688 54.48673828 10.71179688 53.26171875 12.203125 C51.0528279 14.82021791 51.0528279 14.82021791 49.65531921 17.14642334 C48 19 48 19 45.81697083 19.48101807 C44.97091782 19.47213562 44.12486481 19.46325317 43.25317383 19.45410156 C42.29240433 19.45379944 41.33163483 19.45349731 40.3417511 19.45318604 C39.30729355 19.43254089 38.272836 19.41189575 37.20703125 19.390625 C35.61528328 19.38213531 35.61528328 19.38213531 33.99137878 19.37347412 C30.59796265 19.35106143 27.20559765 19.30085449 23.8125 19.25 C21.51368711 19.2299414 19.21485769 19.21168952 16.91601562 19.1953125 C11.27693798 19.15118034 5.63864727 19.08211776 0 19 C0 12.73 0 6.46 0 0 Z " fill="#000000" transform="translate(156,227)"/>
</svg>
